<svg width="8" height="16" viewBox="0 0 8 16" fill="none" xmlns="http://www.w3.org/2000/svg">
<path d="M6.05744 15.0137C6.2911 15.0142 6.51753 14.9328 6.69744 14.7837C6.7987 14.6998 6.8824 14.5967 6.94376 14.4803C7.00511 14.364 7.0429 14.2367 7.05498 14.1057C7.06706 13.9747 7.05317 13.8427 7.01413 13.7171C6.97509 13.5915 6.91165 13.4748 6.82744 13.3737L2.34744 8.01373L6.66744 2.64373C6.75051 2.54145 6.81254 2.42375 6.84997 2.29741C6.8874 2.17107 6.8995 2.03858 6.88556 1.90755C6.87162 1.77652 6.83192 1.64954 6.76875 1.53391C6.70558 1.41827 6.62017 1.31626 6.51744 1.23373C6.41398 1.1427 6.29281 1.07403 6.16155 1.03204C6.03029 0.990052 5.89176 0.975649 5.75467 0.989734C5.61758 1.00382 5.48487 1.04609 5.36489 1.11389C5.24491 1.18169 5.14024 1.27356 5.05744 1.38373L0.227444 7.38373C0.0803623 7.56267 -4.33922e-05 7.78711 -4.33922e-05 8.01873C-4.33922e-05 8.25036 0.0803623 8.4748 0.227444 8.65374L5.22744 14.6537C5.32776 14.7748 5.45519 14.8704 5.5994 14.933C5.74361 14.9955 5.90054 15.0232 6.05744 15.0137Z" fill="#595959"/>
</svg>
