<svg width="8" height="15" viewBox="0 0 8 15" fill="none" xmlns="http://www.w3.org/2000/svg">
<path d="M1.94253 14.5137C1.70887 14.5142 1.48244 14.4328 1.30253 14.2837C1.20127 14.1998 1.11756 14.0967 1.05621 13.9803C0.994861 13.864 0.957065 13.7367 0.944989 13.6057C0.932913 13.4747 0.946795 13.3427 0.985839 13.2171C1.02488 13.0915 1.08832 12.9748 1.17253 12.8737L5.65253 7.51373L1.33253 2.14373C1.24946 2.04145 1.18743 1.92375 1.15 1.79741C1.11256 1.67107 1.10047 1.53858 1.11441 1.40755C1.12835 1.27652 1.16805 1.14954 1.23122 1.03391C1.29439 0.918269 1.3798 0.816257 1.48253 0.733734C1.58599 0.642698 1.70716 0.57403 1.83842 0.532041C1.96968 0.490052 2.10821 0.475649 2.2453 0.489734C2.38239 0.503818 2.51509 0.546088 2.63508 0.61389C2.75506 0.681692 2.85973 0.773562 2.94253 0.883735L7.77253 6.88373C7.91961 7.06267 8.00001 7.28711 8.00001 7.51873C8.00001 7.75036 7.91961 7.9748 7.77253 8.15374L2.77253 14.1537C2.67221 14.2748 2.54477 14.3704 2.40056 14.433C2.25636 14.4955 2.09943 14.5232 1.94253 14.5137Z" fill="#1A1A1A"/>
</svg>
