<svg width="11" height="11" viewBox="0 0 11 11" fill="none" xmlns="http://www.w3.org/2000/svg">
<path d="M5.50002 10.0406C5.4469 10.0406 5.39381 10.0269 5.34623 9.99938C5.29455 9.96956 4.06673 9.25667 2.82129 8.18251C2.08313 7.54589 1.49391 6.91446 1.07001 6.30579C0.521468 5.51817 0.245618 4.76057 0.250068 4.05401C0.255277 3.23186 0.549748 2.45867 1.0793 1.87687C1.61779 1.28526 2.33643 0.959473 3.10286 0.959473C4.08512 0.959473 4.98318 1.5097 5.50004 2.38132C6.01689 1.50972 6.91495 0.959473 7.89721 0.959473C8.6213 0.959473 9.31214 1.25343 9.84256 1.78721C10.4246 2.37297 10.7554 3.20062 10.75 4.05791C10.7455 4.76323 10.4645 5.51968 9.91472 6.30622C9.48952 6.91458 8.90111 7.54573 8.16584 8.18217C6.92496 9.25622 5.70596 9.96909 5.65466 9.99891C5.60686 10.0267 5.55342 10.0406 5.50002 10.0406Z" fill="white"/>
</svg>
