<svg width="22" height="6" viewBox="0 0 22 6" fill="none" xmlns="http://www.w3.org/2000/svg">
<path d="M2.875 5.4375C2.22853 5.4375 1.60855 5.18069 1.15143 4.72357C0.694307 4.26645 0.4375 3.64647 0.4375 3C0.4375 2.35353 0.694307 1.73355 1.15143 1.27643C1.60855 0.819307 2.22853 0.5625 2.875 0.5625C3.52147 0.5625 4.14145 0.819307 4.59857 1.27643C5.05569 1.73355 5.3125 2.35353 5.3125 3C5.3125 3.64647 5.05569 4.26645 4.59857 4.72357C4.14145 5.18069 3.52147 5.4375 2.875 5.4375ZM11 5.4375C10.3535 5.4375 9.73355 5.18069 9.27643 4.72357C8.81931 4.26645 8.5625 3.64647 8.5625 3C8.5625 2.35353 8.81931 1.73355 9.27643 1.27643C9.73355 0.819307 10.3535 0.5625 11 0.5625C11.6465 0.5625 12.2665 0.819307 12.7236 1.27643C13.1807 1.73355 13.4375 2.35353 13.4375 3C13.4375 3.64647 13.1807 4.26645 12.7236 4.72357C12.2665 5.18069 11.6465 5.4375 11 5.4375ZM19.125 5.4375C18.4785 5.4375 17.8585 5.18069 17.4014 4.72357C16.9443 4.26645 16.6875 3.64647 16.6875 3C16.6875 2.35353 16.9443 1.73355 17.4014 1.27643C17.8585 0.819307 18.4785 0.5625 19.125 0.5625C19.7715 0.5625 20.3915 0.819307 20.8486 1.27643C21.3057 1.73355 21.5625 2.35353 21.5625 3C21.5625 3.64647 21.3057 4.26645 20.8486 4.72357C20.3915 5.18069 19.7715 5.4375 19.125 5.4375Z" fill="#595959"/>
</svg>
